<svg width="28.815" height="65.791" viewBox="0 0 28.815 65.791" xmlns="http://www.w3.org/2000/svg">
    <g id="svgGroup" stroke-linecap="round" fill-rule="evenodd" font-size="9pt" stroke="#1a2a47" stroke-width="0.25mm"
        fill="#5851d4" style="stroke:#1a2a47;stroke-width:0.25mm;fill:#5851d4">
        <path
            d="M 28.815 0.766 L 26.18 10.456 Q 23.311 9.758 20.938 9.697 A 17.534 17.534 0 0 0 20.485 9.691 Q 18.733 9.691 17.644 10.413 A 3.431 3.431 0 0 0 16.787 11.221 A 4.367 4.367 0 0 0 16.182 12.401 Q 15.762 13.597 15.668 15.445 A 22.114 22.114 0 0 0 15.64 16.576 L 15.555 24.651 L 24.735 24.651 L 23.8 31.621 L 15.555 31.621 L 15.47 43.691 L 16.405 63.666 L 4.93 65.791 L 5.95 45.136 L 5.61 31.621 L 0 31.621 L 0.935 24.651 L 5.44 24.651 L 5.355 18.191 A 20.329 20.329 0 0 1 6.561 11.089 A 18.285 18.285 0 0 1 10.03 5.313 Q 14.705 0.001 21.42 0.001 A 36.595 36.595 0 0 1 27.154 0.468 A 42.047 42.047 0 0 1 28.815 0.766 Z"
            id="0" vector-effect="non-scaling-stroke" />
    </g>
</svg>