<svg width="304.47" height="66.728" viewBox="0 0 304.47 66.728" xmlns="http://www.w3.org/2000/svg">
    <g id="svgGroup" stroke-linecap="round" fill-rule="evenodd" font-size="9pt" stroke="#1a2a47" stroke-width="0.25mm"
        fill="#45add9" style="stroke:#1a2a47;stroke-width:0.25mm;fill:#45add9">
        <svg width="28.815" height="65.791" viewBox="0 0 28.815 65.791" xmlns="http://www.w3.org/2000/svg">
            <g id="svgGroup" stroke-linecap="round" fill-rule="evenodd" font-size="9pt" stroke="#1a2a47"
                stroke-width="0.25mm" fill="#5851d4" style="stroke:#1a2a47;stroke-width:0.25mm;fill:#5851d4">
                <path
                    d="M 28.815 0.766 L 26.18 10.456 Q 23.311 9.758 20.938 9.697 A 17.534 17.534 0 0 0 20.485 9.691 Q 18.733 9.691 17.644 10.413 A 3.431 3.431 0 0 0 16.787 11.221 A 4.367 4.367 0 0 0 16.182 12.401 Q 15.762 13.597 15.668 15.445 A 22.114 22.114 0 0 0 15.64 16.576 L 15.555 24.651 L 24.735 24.651 L 23.8 31.621 L 15.555 31.621 L 15.47 43.691 L 16.405 63.666 L 4.93 65.791 L 5.95 45.136 L 5.61 31.621 L 0 31.621 L 0.935 24.651 L 5.44 24.651 L 5.355 18.191 A 20.329 20.329 0 0 1 6.561 11.089 A 18.285 18.285 0 0 1 10.03 5.313 Q 14.705 0.001 21.42 0.001 A 36.595 36.595 0 0 1 27.154 0.468 A 42.047 42.047 0 0 1 28.815 0.766 Z"
                    id="0" vector-effect="non-scaling-stroke" />
            </g>
        </svg>
        <path
            d="M 29.155 54.826 L 29.665 45.051 L 28.73 24.651 L 40.12 22.526 L 39.015 48.366 A 16.101 16.101 0 0 0 39.119 50.267 Q 39.356 52.25 40.13 53.436 A 4.318 4.318 0 0 0 40.333 53.721 A 4.129 4.129 0 0 0 42.443 55.138 Q 43.131 55.35 43.967 55.403 A 9.044 9.044 0 0 0 44.54 55.421 A 8.194 8.194 0 0 0 46.451 55.166 Q 48.368 54.702 50.932 53.393 A 41.84 41.84 0 0 0 52.53 52.531 L 52.53 47.431 L 51.595 25.076 L 63.07 22.951 L 62.05 44.201 L 62.135 51.171 A 22.725 22.725 0 0 0 63.58 59.024 A 28.564 28.564 0 0 0 64.94 62.136 L 56.1 66.046 Q 53.295 60.521 52.7 57.206 Q 45.05 65.791 39.44 65.791 A 11.342 11.342 0 0 1 35.938 65.274 A 9.242 9.242 0 0 1 32.002 62.773 A 10.231 10.231 0 0 1 29.393 57.516 A 14.548 14.548 0 0 1 29.155 54.826 Z"
            id="1" vector-effect="non-scaling-stroke" />
        <path
            d="M 82.96 37.486 L 82.96 43.691 L 83.895 63.666 L 72.505 65.791 L 73.525 45.136 A 176.884 176.884 0 0 0 72.916 34.66 Q 72.444 29.382 71.655 24.736 L 81.94 22.526 A 147.847 147.847 0 0 1 82.757 31.546 A 135.396 135.396 0 0 1 82.79 32.131 Q 84.065 30.431 85.68 28.773 Q 87.139 27.276 90.124 25.432 A 51.922 51.922 0 0 1 90.78 25.033 Q 94.265 22.951 98.133 22.951 A 8.22 8.22 0 0 1 104.258 25.559 A 10.611 10.611 0 0 1 104.635 25.968 A 10.179 10.179 0 0 1 106.783 30.115 Q 107.194 31.657 107.258 33.484 A 19.568 19.568 0 0 1 107.27 34.171 L 106.76 43.691 L 107.695 64.091 L 96.22 66.216 L 97.24 44.286 Q 97.24 38.79 96.344 36.728 A 4.072 4.072 0 0 0 96.22 36.466 Q 95.244 34.596 91.781 34.515 A 13.642 13.642 0 0 0 91.46 34.511 Q 88.692 34.511 85.364 36.141 A 26.792 26.792 0 0 0 82.96 37.486 Z"
            id="2" vector-effect="non-scaling-stroke" />
        <path
            d="M 134.64 22.951 L 139.4 23.631 L 139.4 22.016 L 138.38 2.126 L 150.025 0.001 L 148.92 43.691 L 148.92 51.171 A 24.91 24.91 0 0 0 149.374 55.746 Q 149.996 59.068 151.47 62.901 L 142.29 66.726 A 35.44 35.44 0 0 1 140.688 62.884 Q 139.692 59.999 139.485 57.461 A 46.881 46.881 0 0 1 136.67 60.707 Q 133.629 63.878 131.013 65.071 A 7.244 7.244 0 0 1 128.01 65.791 A 11.869 11.869 0 0 1 118.979 61.88 A 15.509 15.509 0 0 1 118.107 60.861 A 17.599 17.599 0 0 1 114.807 53.707 A 25.381 25.381 0 0 1 114.24 48.196 A 31.66 31.66 0 0 1 115.453 39.248 A 25.635 25.635 0 0 1 120.148 30.261 A 21.229 21.229 0 0 1 125.144 25.683 A 17.183 17.183 0 0 1 134.64 22.951 Z M 139.4 52.276 L 139.4 33.916 A 90.827 90.827 0 0 0 137.015 33.47 Q 134.617 33.057 132.988 32.941 A 16.398 16.398 0 0 0 131.835 32.896 A 8.597 8.597 0 0 0 129.212 33.276 A 6.746 6.746 0 0 0 125.885 35.616 Q 123.76 38.336 123.76 43.776 A 24.094 24.094 0 0 0 123.955 46.943 Q 124.176 48.608 124.649 49.974 A 10.424 10.424 0 0 0 125.758 52.276 A 6.695 6.695 0 0 0 127.967 54.44 Q 129.491 55.336 131.538 55.336 Q 134.818 55.336 138.321 53.035 A 21.145 21.145 0 0 0 139.4 52.276 Z"
            id="3" vector-effect="non-scaling-stroke" />
        <path
            d="M 185.045 0.766 L 182.41 10.456 Q 179.541 9.758 177.168 9.697 A 17.534 17.534 0 0 0 176.715 9.691 Q 174.963 9.691 173.874 10.413 A 3.431 3.431 0 0 0 173.017 11.221 A 4.367 4.367 0 0 0 172.412 12.401 Q 171.992 13.597 171.898 15.445 A 22.114 22.114 0 0 0 171.87 16.576 L 171.785 24.651 L 180.965 24.651 L 180.03 31.621 L 171.785 31.621 L 171.7 43.691 L 172.635 63.666 L 161.16 65.791 L 162.18 45.136 L 161.84 31.621 L 156.23 31.621 L 157.165 24.651 L 161.67 24.651 L 161.585 18.191 A 20.329 20.329 0 0 1 162.791 11.089 A 18.285 18.285 0 0 1 166.26 5.313 Q 170.935 0.001 177.65 0.001 A 36.595 36.595 0 0 1 183.384 0.468 A 42.047 42.047 0 0 1 185.045 0.766 Z"
            id="4" vector-effect="non-scaling-stroke" />
        <path
            d="M 185.47 2.126 L 197.115 0.001 L 196.01 43.691 L 196.945 63.666 L 185.47 65.791 L 186.49 45.136 L 185.47 2.126 Z"
            id="5" vector-effect="non-scaling-stroke" />
        <path
            d="M 205.629 38.847 A 33.549 33.549 0 0 0 204.425 48.026 Q 204.425 56.101 209.058 61.413 A 15.559 15.559 0 0 0 213.775 65.148 A 15.245 15.245 0 0 0 220.745 66.726 A 16.503 16.503 0 0 0 230.331 63.821 A 20.447 20.447 0 0 0 234.982 59.288 A 26.801 26.801 0 0 0 239.702 49.123 A 36.749 36.749 0 0 0 240.635 40.631 A 31.89 31.89 0 0 0 240.632 40.222 Q 240.528 32.091 236.258 27.116 A 13.988 13.988 0 0 0 229.219 22.675 A 19.421 19.421 0 0 0 224.018 22.016 Q 216.155 22.016 210.29 29.581 A 26.978 26.978 0 0 0 205.629 38.847 Z M 231.115 45.051 A 26.718 26.718 0 0 0 230.794 40.707 Q 229.52 33.021 223.193 32.737 A 10.995 10.995 0 0 0 222.7 32.726 A 9.283 9.283 0 0 0 218.679 33.536 Q 213.945 35.785 213.945 44.286 Q 213.945 48.515 215.156 51.45 A 10.985 10.985 0 0 0 216.41 53.721 A 8.622 8.622 0 0 0 218.648 55.906 Q 220.485 57.111 222.875 57.121 A 9.579 9.579 0 0 0 222.913 57.121 A 8.317 8.317 0 0 0 225.562 56.72 A 6.644 6.644 0 0 0 229.033 54.018 A 10.586 10.586 0 0 0 230.339 51.181 Q 230.751 49.826 230.945 48.181 A 26.908 26.908 0 0 0 231.115 45.051 Z"
            id="6" vector-effect="non-scaling-stroke" />
        <path
            d="M 282.88 41.311 L 285.855 55.166 L 286.96 55.166 L 289.68 43.521 L 294.1 22.526 L 304.47 23.801 L 298.265 44.881 L 293.08 64.771 L 279.14 66.046 L 274.465 45.391 L 274.04 44.031 L 268.345 64.771 L 254.83 66.046 L 249.9 45.391 L 244.035 24.736 L 255.17 22.611 L 258.655 41.311 L 261.715 55.166 L 262.82 55.166 L 270.13 30.941 L 268.345 24.736 L 279.31 22.611 L 282.88 41.311 Z"
            id="7" vector-effect="non-scaling-stroke" />
    </g>
</svg>